PathFileType	4	(X/Y/Z)	Trial58_Right_Knee_markers_cropped.trc
DataRate	CameraRate	NumFrames	NumMarkers	Units	OrigDataRate	OrigDataStartFrame	OrigNumFrames																																																																																													
200	200	4	27	m	200	50	101
Frame#	Time	R_ASIS			L_ASIS			Sacral			L_Thigh_Superior			L_Thigh_Inferior			L_Thigh_Lateral			L_Shank_Superior			L_Shank_Inferior			L_Shank_Lateral			L_Heel			L_Midfoot_Superior			L_Midfoot_Lateral			L_Toe			R_Thigh_Superior			R_Thigh_Inferior			R_Thigh_Lateral			R_Shank_Superior			R_Shank_Lateral			R_Shank_Inferior			R_Heel			R_Midfoot_Superior			R_Midfoot_Lateral			R_Toe
		X1	Y1	Z1	X2	Y2	Z2	X3	Y3	Z3	X4	Y4	Z4	X5	Y5	Z5	X6	Y6	Z6	X7	Y7	Z7	X8	Y8	Z8	X9	Y9	Z9	X10	Y10	Z10	X11	Y11	Z11	X12	Y12	Z12	X13	Y13	Z13	X14	Y14	Z14	X15	Y15	Z15	X16	Y16	Z16	X17	Y17	Z17	X18	Y18	Z18	X19	Y19	Z19	X20	Y20	Z20	X21	Y21	Z21	X22	Y22	Z22	X23	Y23	Z23

51	   0.250	   -0.64323517574728	    0.93546352602893	   -0.50895530653076	   -0.61924495668645	    0.93598736688079	   -0.78216992232814	   -0.83634482873363	    1.03658012709243	   -0.66534358837420	   -0.58606350173873	    0.73917044163848	   -0.73169647902356	   -0.59442918615035	    0.55015072318308	   -0.71357396167224	   -0.66336607380486	    0.62913802249549	   -0.79573032153141	   -0.61016090990645	    0.41463287820342	   -0.70376117710887	   -0.62369075905080	    0.19009243890103	   -0.66106424238605	   -0.68177563584817	    0.28598160219320	   -0.74870186782044	   -0.73831602657593	    0.03149347182273	   -0.60973133962294	   -0.58160076805186	    0.09114705259218	   -0.66332910454653	   -0.66144151433053	    0.02791802827476	   -0.68931988858164	   -0.73831602657593	    0.03149347182273	   -0.60973133962294	   -0.57541647324116	    0.76357699271426	   -0.54501446112416	   -0.54356409050710	    0.59779908249582	   -0.55549486578278	   -0.63357748992731	    0.65296985142448	   -0.47364985146369	   -0.67766044000590	    0.45985437603860	   -0.52405248258875	   -0.88012187213917	    0.47103559613616	   -0.52558998726743	   -0.79333748547871	    0.53578719153521	   -0.47770246579244	   -1.05697319355323	    0.57635233321997	   -0.57954854328124	   -0.98639676244303	    0.42379747030968	   -0.50385432251909	   -1.06145113408680	    0.51031870409180	   -0.48989286742413	   -1.02959273078025	    0.30923689454928	   -0.45152941456931
52	   0.255	   -0.64305599454054	    0.93605640375005	   -0.50903435827450	   -0.61854269099183	    0.93599031599323	   -0.78217563134452	   -0.83600252226605	    1.03647272704341	   -0.66601678077507	   -0.58525387596487	    0.73930018357495	   -0.73150947749640	   -0.59387303009543	    0.55012996949149	   -0.71355530053355	   -0.66267931843192	    0.62910420758242	   -0.79577286836596	   -0.60967390863317	    0.41457268627079	   -0.70374529046050	   -0.62347685537853	    0.19004320457331	   -0.66104746523398	   -0.68148458796104	    0.28599478100789	   -0.74867383320695	   -0.73830692538974	    0.03150760498933	   -0.60972045761978	   -0.58154025450678	    0.09110915830810	   -0.66328665681226	   -0.66142604518115	    0.02793358112152	   -0.68930631737247	   -0.73830692538974	    0.03150760498933	   -0.60972045761978	   -0.57416867147259	    0.76499047481649	   -0.54474637801019	   -0.54131900665308	    0.59936756544645	   -0.55458487109096	   -0.63176418615367	    0.65406396942281	   -0.47306738571780	   -0.67414313895739	    0.46015184432393	   -0.52292101560741	   -0.87664117186984	    0.46858379378267	   -0.52461047109439	   -0.79087517472813	    0.53463133807449	   -0.47683434515415	   -1.05496423576958	    0.57138648370007	   -0.57885700175492	   -0.98233815370103	    0.41993464318886	   -0.50295600020643	   -1.05861401006418	    0.50549321975982	   -0.48907239261151	   -1.02397898222782	    0.30493721873522	   -0.45033593444821
53	   0.260	   -0.64275070264189	    0.93659863013432	   -0.50916106350010	   -0.61782682241617	    0.93603235231914	   -0.78223109058318	   -0.83562885619015	    1.03630910086646	   -0.66664018143388	   -0.58432623274274	    0.73941417476487	   -0.73144341730294	   -0.59329979054871	    0.55009343176695	   -0.71360831560086	   -0.66201143801395	    0.62905784898149	   -0.79585645559527	   -0.60918322037033	    0.41450098124880	   -0.70377288233649	   -0.62326254375781	    0.18999130754289	   -0.66105385330988	   -0.68119583157130	    0.28599985214353	   -0.74866841636729	   -0.73829858780712	    0.03152335345478	   -0.60971049093642	   -0.58148084429222	    0.09107184487442	   -0.66324996425028	   -0.66141240562756	    0.02794832188894	   -0.68929384275204	   -0.73829858780712	    0.03152335345478	   -0.60971049093642	   -0.57289549742579	    0.76623614951114	   -0.54467165304857	   -0.53914592134242	    0.60076926017753	   -0.55402089121688	   -0.62989909670696	    0.65503340196598	   -0.47269521231524	   -0.67078838916399	    0.46042396955354	   -0.52199596862326	   -0.87332178039724	    0.46645336273017	   -0.52353915575099	   -0.78840063122758	    0.53366647512103	   -0.47600501796128	   -1.05299156061863	    0.56703535575617	   -0.57788204666904	   -0.97849252760350	    0.41661157970509	   -0.50176888140353	   -1.05580281670737	    0.50133817376715	   -0.48792739869329	   -1.01870425204635	    0.30126999636938	   -0.44875537033990
54	   0.265	   -0.64231664906670	    0.93708789494625	   -0.50935028864384	   -0.61711006614701	    0.93611720863339	   -0.78235296966037	   -0.83522976738741	    1.03609654417603	   -0.66720895586060	   -0.58331686922251	    0.73949698937745	   -0.73152138937474	   -0.59273007079188	    0.55003984131439	   -0.71374152139963	   -0.66138657281634	    0.62900090164488	   -0.79598555283516	   -0.60870792792664	    0.41441875889350	   -0.70384770662435	   -0.62305786880468	    0.18993823329502	   -0.66108494282743	   -0.68092342723314	    0.28599621933842	   -0.74868636624268	   -0.73829119323864	    0.03153999335162	   -0.60970175124536	   -0.58142521158013	    0.09103683590299	   -0.66322171123227	   -0.66140134801937	    0.02796163243817	   -0.68928283294510	   -0.73829119323864	    0.03153999335162	   -0.60970175124536	   -0.57159234147474	    0.76731951675440	   -0.54478486183493	   -0.53702922779611	    0.60200548262980	   -0.55376839876002	   -0.62797800295470	    0.65589145476174	   -0.47250769354548	   -0.66761205061475	    0.46070900836980	   -0.52125386159395	   -0.87017885125395	    0.46476667530741	   -0.52240829633641	   -0.78589930137816	    0.53297453525242	   -0.47522823881270	   -1.05100579924674	    0.56349141702212	   -0.57669978574686	   -0.97488925279743	    0.41398469780332	   -0.50035414130128	   -1.05301760932743	    0.49805037711356	   -0.48653389052042	   -1.01386950678465	    0.29841840912657	   -0.44685458861430
